<svg width="411" height="541" viewBox="0 0 411 541" fill="none" xmlns="http://www.w3.org/2000/svg">
<g clip-path="url(#clip0)">
<path d="M199.695 53.503L398.938 76.5168C406.584 77.3981 411.912 83.274 410.87 89.7374L381.447 271.889C380.404 278.352 373.454 282.857 365.808 281.976L166.565 258.962C158.92 258.08 153.591 252.205 154.634 245.741L184.057 63.5899C185.1 57.2244 192.05 52.6217 199.695 53.503Z" fill="white"/>
<path d="M107.648 463.5C101.807 464.329 81.4239 459.766 77.9885 457.443C76.8434 456.697 75.9272 454.54 75.0111 453.627C74.2095 450.724 72.2628 452.217 70.3161 451.968C64.4758 451.055 48.6729 448.069 41.2295 450.973C39.8553 453.212 39.7408 455.369 38.8247 456.614C36.8779 462.255 35.6183 468.062 34.8167 473.87C34.2441 477.437 37.794 480.589 42.6036 481.004C42.6036 481.004 42.6036 481.004 42.7181 481.004H42.8327C44.4359 481.087 46.1536 481.004 47.8713 480.838C60.4678 478.598 86.0045 478.018 95.8527 475.197C112.343 472.044 121.733 465.739 107.648 463.5Z" fill="#494DB4"/>
<path d="M303.581 470.219C297.856 471.298 277.014 467.648 273.464 465.491C272.205 464.827 271.174 462.753 270.143 461.84C269.113 459.02 267.28 460.513 265.334 460.347C259.379 459.683 243.347 457.361 236.133 460.596C234.873 462.836 235.102 465.076 234.3 466.32C232.926 472.044 232.01 477.935 231.781 483.742C231.552 487.309 235.331 490.296 240.255 490.545C240.255 490.545 240.255 490.545 240.37 490.545H240.484C242.087 490.628 243.805 490.462 245.408 490.213C257.776 487.392 283.198 485.733 292.817 482.414C308.964 478.515 317.896 471.796 303.581 470.219Z" fill="#494DB4"/>
<path d="M40.5424 451.138C50.5051 452.134 74.4386 452.383 74.4386 452.383C74.4386 452.383 75.9272 443.921 83.2561 427.661C90.6996 411.152 128.146 359.384 128.146 359.384C135.818 350.922 143.834 333.418 143.834 333.418L155.057 266.386C155.057 266.386 214.26 333.335 213.459 348.516C212.657 363.698 227.315 423.098 227.315 423.098C228.804 431.975 236.133 461.343 236.133 461.343C247.126 460.347 258.234 460.181 269.342 460.679C267.853 448.484 261.784 398.459 261.784 398.459C261.784 398.459 258.005 359.633 257.203 335.989C256.402 312.346 233.155 262.487 217.467 239.672C215.405 235.773 213.688 231.874 212.314 227.809L73.866 240.502C76.9579 246.89 79.4772 253.361 81.3094 259.998C89.4399 289.615 95.1656 339.391 95.1656 339.391C73.5224 357.144 59.8953 390.577 59.8953 390.577C51.0777 410.654 40.5424 451.138 40.5424 451.138Z" fill="url(#paint0_linear)"/>
<path d="M203.878 46.9169C179.829 44.5936 155.85 53.3791 155.85 53.3791L151.825 54.7352L128.27 84.1797L151.345 77.3221C157.496 75.0608 169.599 71.4311 175.251 71.4021C179.46 70.9146 189.554 72.0339 194.078 68.4455C197.57 66.7932 198.049 64.2321 204.95 57.6319C209.881 52.3672 208.254 51.0402 210.259 50.2526C212.883 49.0956 210.432 46.9406 203.878 46.9169Z" fill="url(#paint1_linear)"/>
<path d="M285.112 275.477C284.809 274.449 280.603 275.344 279.835 274.45C274.866 269.003 268.971 262.043 257.189 259.334C253.826 258.604 250.365 258.196 246.924 258.1L239.907 270.595C240.984 272.622 242.409 274.523 243.938 276.207C249.018 281.542 259.416 288.53 277.449 285.289C281.67 284.602 285.949 279.301 285.112 275.477Z" fill="url(#paint2_linear)"/>
<path d="M106.075 21.0036C103.531 21.1652 52.2123 61.0375 52.0108 65.141C52.0323 67.2873 52.5107 76.5634 51.0521 82.7922C49.6831 88.6062 45.0016 97.0851 45.0016 97.0851C45.0016 97.0851 50.1167 104.43 62.2409 105.194C73.8961 105.886 89.1761 101.54 89.1761 101.54C89.1761 101.54 84.2988 81.6006 88.5494 79.0807C92.2415 76.903 93.5284 78.8667 106.084 68.2512C118.64 57.6358 112.782 33.2589 112.331 31.6513C111.879 30.0436 108.619 20.842 106.075 21.0036Z" fill="url(#paint3_linear)"/>
<path d="M179.085 191.66C161.158 177.77 149.761 134.481 144.062 123.633C138.364 112.785 129.222 109.744 125.661 108.527C123.88 107.919 114.026 105.587 106.665 103.762L160.09 75.0713C167.332 63.4124 153.085 56.4171 153.085 56.4171L82.4458 98.3382L92.2997 99.7069L72.5918 96.9696L49.0849 93.0157C41.8429 91.5964 34.4821 90.5826 27.1213 90.0757C24.0346 89.8729 20.9478 90.1771 17.9797 91.0895L16.4364 91.5964C12.756 92.7116 9.66921 94.942 7.88838 97.9834C4.08928 105.08 1.47739 112.684 0.290175 120.389C-1.96554 132.859 9.31304 161.144 20.8291 181.724C25.8154 190.443 45.2858 235.253 50.1534 246.507C73.8978 293.548 75.5599 297.197 75.5599 297.197C148.455 296.589 219.451 282.7 219.451 282.7C222.775 277.529 210.784 262.525 210.784 262.525L232.866 278.138C242.483 280.774 250.437 262.424 250.437 262.424C250.437 262.424 194.163 203.318 179.085 191.66Z" fill="url(#paint4_linear)"/>
<path d="M48.6833 19.8868C49.7845 18.1451 52.2071 14.1779 53.6387 12.7265C56.0614 10.501 58.7043 8.37221 61.4573 6.34022C63.9901 4.98556 70.2671 2.17948 72.6897 1.01835C81.2792 -1.30393 92.7318 1.01835 101.101 1.40539C108.699 0.921587 114.316 9.24307 117.289 14.7585C120.262 20.2739 114.536 19.5965 115.086 23.854C115.197 24.6281 112.664 25.7893 110.461 26.8536C108.259 27.918 101.982 36.7233 99.7796 40.884C97.467 30.7241 89.7586 48.8185 91.1901 51.044C88.1067 52.7857 84.3626 60.1395 78.8565 62.4618C75.0023 61.0104 67.8444 55.3982 58.2638 56.9464C57.6031 55.3982 48.1327 49.2055 47.1416 38.7553C46.3707 35.6589 45.5999 24.5314 48.6833 19.8868Z" fill="url(#paint5_linear)"/>
<path opacity="0.07" d="M76.4998 56.2471C76.4998 56.2471 85.4319 62.0543 90.8141 61.8884L89.4399 66.7831L89.7835 73.8347C89.7835 73.8347 86.348 69.8526 81.9965 65.7876C79.2482 62.9669 77.3014 59.7315 76.4998 56.2471Z" fill="black"/>
<path opacity="0.07" d="M108.907 127.51C108.907 127.51 120.13 151.983 154.713 177.452C189.296 202.921 197.656 208.231 197.656 208.231C197.656 208.231 204.756 214.701 202.465 219.015C200.175 223.329 185.059 208.894 151.163 197.695C131.81 191.307 125.168 180.273 116.236 164.842C105.014 145.347 102.495 141.199 101.006 134.23C97.2269 115.979 108.907 127.51 108.907 127.51Z" fill="black"/>
<path opacity="0.07" d="M154.942 266.303C154.942 266.303 138.566 291.938 133.871 304.465C129.062 317.406 129.062 336.238 114.633 345.364C98.2575 355.734 79.0191 390.577 74.5531 397.961C68.2548 408.497 55.3147 466.569 59.0937 470.634C62.7581 474.616 77.5304 468.643 77.5304 468.643C77.5304 468.643 72.1483 453.876 76.7288 440.52C81.3094 427.163 102.838 391.49 116.351 373.819C128.604 357.974 141.086 339.64 143.834 329.021C146.582 318.402 154.942 266.303 154.942 266.303Z" fill="black"/>
<path d="M257.047 183.956L258.016 182.949C258.7 183.671 259.428 184.222 260.201 184.602C260.986 184.97 261.81 185.153 262.671 185.153C263.71 185.153 264.565 184.906 265.236 184.412C265.907 183.918 266.243 183.291 266.243 182.531C266.243 181.847 266.002 181.322 265.521 180.954C265.052 180.587 264.273 180.315 263.184 180.137L261.265 179.833C259.986 179.631 259.042 179.257 258.434 178.712C257.826 178.155 257.522 177.408 257.522 176.47C257.522 175.368 257.953 174.475 258.814 173.791C259.675 173.107 260.803 172.765 262.196 172.765C263.121 172.765 264.039 172.917 264.951 173.221C265.863 173.525 266.693 173.962 267.44 174.532L266.604 175.672C265.882 175.128 265.147 174.716 264.4 174.437C263.653 174.159 262.899 174.019 262.139 174.019C261.189 174.019 260.416 174.241 259.821 174.684C259.238 175.115 258.947 175.672 258.947 176.356C258.947 176.977 259.156 177.452 259.574 177.781C259.992 178.111 260.682 178.351 261.645 178.503L263.545 178.807C264.989 179.048 266.04 179.46 266.699 180.042C267.37 180.625 267.706 181.429 267.706 182.455C267.706 183.038 267.579 183.576 267.326 184.07C267.085 184.552 266.737 184.97 266.281 185.324C265.838 185.666 265.299 185.939 264.666 186.141C264.045 186.331 263.361 186.426 262.614 186.426C261.563 186.426 260.549 186.217 259.574 185.799C258.611 185.369 257.769 184.754 257.047 183.956ZM269.176 181.467C269.176 180.783 269.303 180.137 269.556 179.529C269.81 178.921 270.152 178.396 270.582 177.952C271.026 177.509 271.545 177.161 272.14 176.907C272.736 176.654 273.369 176.527 274.04 176.527C274.712 176.527 275.339 176.654 275.921 176.907C276.517 177.161 277.03 177.509 277.46 177.952C277.904 178.396 278.252 178.921 278.505 179.529C278.759 180.137 278.885 180.783 278.885 181.467C278.885 182.164 278.759 182.816 278.505 183.424C278.252 184.032 277.904 184.558 277.46 185.001C277.03 185.445 276.517 185.793 275.921 186.046C275.339 186.3 274.712 186.426 274.04 186.426C273.369 186.426 272.736 186.3 272.14 186.046C271.545 185.793 271.026 185.445 270.582 185.001C270.152 184.558 269.81 184.032 269.556 183.424C269.303 182.816 269.176 182.164 269.176 181.467ZM274.04 185.172C274.522 185.172 274.971 185.077 275.389 184.887C275.82 184.697 276.187 184.438 276.491 184.108C276.808 183.766 277.055 183.374 277.232 182.93C277.41 182.474 277.498 181.987 277.498 181.467C277.498 180.948 277.41 180.467 277.232 180.023C277.055 179.567 276.808 179.175 276.491 178.845C276.187 178.516 275.82 178.256 275.389 178.066C274.971 177.876 274.522 177.781 274.04 177.781C273.559 177.781 273.103 177.876 272.672 178.066C272.254 178.256 271.887 178.516 271.57 178.845C271.266 179.175 271.019 179.567 270.829 180.023C270.652 180.467 270.563 180.948 270.563 181.467C270.563 181.987 270.652 182.474 270.829 182.93C271.007 183.374 271.247 183.766 271.551 184.108C271.868 184.438 272.242 184.697 272.672 184.887C273.103 185.077 273.559 185.172 274.04 185.172ZM280.839 186.236V176.717H282.245V178.066C282.523 177.572 282.891 177.192 283.347 176.926C283.803 176.648 284.322 176.508 284.905 176.508C285.082 176.508 285.24 176.521 285.38 176.546C285.519 176.559 285.658 176.591 285.798 176.641V177.933C285.633 177.883 285.468 177.845 285.304 177.819C285.139 177.781 284.974 177.762 284.81 177.762C284.227 177.762 283.714 177.933 283.271 178.275C282.827 178.605 282.485 179.086 282.245 179.719V186.236H280.839ZM287.407 186.236V176.717H288.813V178.066C289.092 177.572 289.459 177.192 289.915 176.926C290.371 176.648 290.89 176.508 291.473 176.508C291.65 176.508 291.809 176.521 291.948 176.546C292.087 176.559 292.227 176.591 292.366 176.641V177.933C292.201 177.883 292.037 177.845 291.872 177.819C291.707 177.781 291.543 177.762 291.378 177.762C290.795 177.762 290.282 177.933 289.839 178.275C289.396 178.605 289.054 179.086 288.813 179.719V186.236H287.407ZM296.384 187.471L296.935 186.217L293.059 176.717H294.617L297.695 184.526L301.02 176.717H302.54L297.809 187.661C297.404 188.573 296.954 189.232 296.46 189.637C295.966 190.043 295.339 190.245 294.579 190.245C294.402 190.245 294.231 190.233 294.066 190.207C293.914 190.195 293.787 190.176 293.686 190.15V188.877C293.813 188.903 293.933 188.922 294.047 188.934C294.174 188.947 294.319 188.953 294.484 188.953C294.915 188.953 295.282 188.833 295.586 188.592C295.89 188.352 296.156 187.978 296.384 187.471ZM229.461 211.236V201.717H230.867V202.838C231.234 202.408 231.671 202.085 232.178 201.869C232.685 201.641 233.248 201.527 233.869 201.527C234.946 201.527 235.826 201.869 236.51 202.553C237.194 203.237 237.536 204.124 237.536 205.213V211.236H236.149V205.498C236.149 204.662 235.908 203.997 235.427 203.503C234.946 203.009 234.3 202.762 233.489 202.762C232.919 202.762 232.406 202.889 231.95 203.142C231.507 203.396 231.146 203.757 230.867 204.225V211.236H229.461ZM239.452 206.467C239.452 205.783 239.578 205.137 239.832 204.529C240.085 203.921 240.427 203.396 240.858 202.952C241.301 202.509 241.82 202.161 242.416 201.907C243.011 201.654 243.644 201.527 244.316 201.527C244.987 201.527 245.614 201.654 246.197 201.907C246.792 202.161 247.305 202.509 247.736 202.952C248.179 203.396 248.527 203.921 248.781 204.529C249.034 205.137 249.161 205.783 249.161 206.467C249.161 207.164 249.034 207.816 248.781 208.424C248.527 209.032 248.179 209.558 247.736 210.001C247.305 210.445 246.792 210.793 246.197 211.046C245.614 211.3 244.987 211.426 244.316 211.426C243.644 211.426 243.011 211.3 242.416 211.046C241.82 210.793 241.301 210.445 240.858 210.001C240.427 209.558 240.085 209.032 239.832 208.424C239.578 207.816 239.452 207.164 239.452 206.467ZM244.316 210.172C244.797 210.172 245.247 210.077 245.665 209.887C246.095 209.697 246.463 209.438 246.767 209.108C247.083 208.766 247.33 208.374 247.508 207.93C247.685 207.474 247.774 206.987 247.774 206.467C247.774 205.948 247.685 205.467 247.508 205.023C247.33 204.567 247.083 204.175 246.767 203.845C246.463 203.516 246.095 203.256 245.665 203.066C245.247 202.876 244.797 202.781 244.316 202.781C243.834 202.781 243.378 202.876 242.948 203.066C242.53 203.256 242.162 203.516 241.846 203.845C241.542 204.175 241.295 204.567 241.105 205.023C240.927 205.467 240.839 205.948 240.839 206.467C240.839 206.987 240.927 207.474 241.105 207.93C241.282 208.374 241.523 208.766 241.827 209.108C242.143 209.438 242.517 209.697 242.948 209.887C243.378 210.077 243.834 210.172 244.316 210.172ZM251.606 209.108V202.914H249.554V201.717H251.606V199.304L252.993 198.943V201.717H255.862V202.914H252.993V208.747C252.993 209.254 253.107 209.621 253.335 209.849C253.563 210.065 253.936 210.172 254.456 210.172C254.722 210.172 254.956 210.153 255.159 210.115C255.374 210.077 255.602 210.014 255.843 209.925V211.16C255.602 211.249 255.33 211.312 255.026 211.35C254.734 211.388 254.449 211.407 254.171 211.407C253.347 211.407 252.714 211.211 252.271 210.818C251.827 210.426 251.606 209.856 251.606 209.108ZM257.367 211.236V197.936L258.773 197.613V202.838C259.14 202.408 259.577 202.085 260.084 201.869C260.591 201.641 261.154 201.527 261.775 201.527C262.852 201.527 263.732 201.869 264.416 202.553C265.1 203.237 265.442 204.124 265.442 205.213V211.236H264.055V205.498C264.055 204.662 263.814 203.997 263.333 203.503C262.852 203.009 262.206 202.762 261.395 202.762C260.825 202.762 260.312 202.889 259.856 203.142C259.413 203.396 259.052 203.757 258.773 204.225V211.236H257.367ZM268.498 199.893C268.245 199.893 268.023 199.798 267.833 199.608C267.643 199.418 267.548 199.197 267.548 198.943C267.548 198.677 267.643 198.456 267.833 198.278C268.023 198.088 268.245 197.993 268.498 197.993C268.764 197.993 268.986 198.088 269.163 198.278C269.353 198.456 269.448 198.677 269.448 198.943C269.448 199.197 269.353 199.418 269.163 199.608C268.986 199.798 268.764 199.893 268.498 199.893ZM269.201 201.717V211.236H267.795V201.717H269.201ZM271.599 211.236V201.717H273.005V202.838C273.372 202.408 273.809 202.085 274.316 201.869C274.822 201.641 275.386 201.527 276.007 201.527C277.083 201.527 277.964 201.869 278.648 202.553C279.332 203.237 279.674 204.124 279.674 205.213V211.236H278.287V205.498C278.287 204.662 278.046 203.997 277.565 203.503C277.083 203.009 276.437 202.762 275.627 202.762C275.057 202.762 274.544 202.889 274.088 203.142C273.644 203.396 273.283 203.757 273.005 204.225V211.236H271.599ZM286.339 211.312C285.681 211.312 285.06 211.186 284.477 210.932C283.907 210.679 283.407 210.337 282.976 209.906C282.546 209.463 282.204 208.944 281.95 208.348C281.71 207.753 281.589 207.113 281.589 206.429C281.589 205.745 281.71 205.106 281.95 204.51C282.204 203.915 282.546 203.402 282.976 202.971C283.407 202.528 283.914 202.18 284.496 201.926C285.079 201.673 285.706 201.546 286.377 201.546C286.922 201.546 287.448 201.648 287.954 201.85C288.474 202.04 288.949 202.313 289.379 202.667V201.717H290.766V211.464C290.766 212.68 290.412 213.611 289.702 214.257C288.993 214.916 287.98 215.245 286.662 215.245C286.004 215.245 285.351 215.157 284.705 214.979C284.059 214.815 283.47 214.574 282.938 214.257L283.546 213.155C284.116 213.459 284.642 213.681 285.123 213.82C285.617 213.96 286.111 214.029 286.605 214.029C287.505 214.029 288.189 213.814 288.657 213.383C289.126 212.953 289.36 212.319 289.36 211.483V210.21C288.93 210.565 288.455 210.837 287.935 211.027C287.429 211.217 286.897 211.312 286.339 211.312ZM282.976 206.429C282.976 206.936 283.065 207.417 283.242 207.873C283.42 208.317 283.66 208.703 283.964 209.032C284.281 209.349 284.655 209.602 285.085 209.792C285.516 209.982 285.972 210.077 286.453 210.077C287.061 210.077 287.619 209.963 288.125 209.735C288.632 209.507 289.044 209.184 289.36 208.766V204.092C289.044 203.687 288.626 203.37 288.106 203.142C287.6 202.914 287.049 202.8 286.453 202.8C285.959 202.8 285.497 202.895 285.066 203.085C284.648 203.263 284.281 203.516 283.964 203.845C283.66 204.175 283.42 204.561 283.242 205.004C283.065 205.448 282.976 205.923 282.976 206.429ZM296.367 201.717H298.609V199.912C298.609 198.988 298.862 198.278 299.369 197.784C299.876 197.278 300.604 197.024 301.554 197.024C301.807 197.024 302.035 197.037 302.238 197.062C302.441 197.088 302.637 197.132 302.827 197.195V198.449C302.612 198.386 302.415 198.342 302.238 198.316C302.061 198.278 301.864 198.259 301.649 198.259C301.092 198.259 300.674 198.399 300.395 198.677C300.129 198.943 299.996 199.368 299.996 199.95V201.717H302.827V202.914H299.996V211.236H298.609V202.914H296.367V201.717ZM303.41 206.467C303.41 205.783 303.536 205.137 303.79 204.529C304.043 203.921 304.385 203.396 304.816 202.952C305.259 202.509 305.778 202.161 306.374 201.907C306.969 201.654 307.602 201.527 308.274 201.527C308.945 201.527 309.572 201.654 310.155 201.907C310.75 202.161 311.263 202.509 311.694 202.952C312.137 203.396 312.485 203.921 312.739 204.529C312.992 205.137 313.119 205.783 313.119 206.467C313.119 207.164 312.992 207.816 312.739 208.424C312.485 209.032 312.137 209.558 311.694 210.001C311.263 210.445 310.75 210.793 310.155 211.046C309.572 211.3 308.945 211.426 308.274 211.426C307.602 211.426 306.969 211.3 306.374 211.046C305.778 210.793 305.259 210.445 304.816 210.001C304.385 209.558 304.043 209.032 303.79 208.424C303.536 207.816 303.41 207.164 303.41 206.467ZM308.274 210.172C308.755 210.172 309.205 210.077 309.623 209.887C310.053 209.697 310.421 209.438 310.725 209.108C311.041 208.766 311.288 208.374 311.466 207.93C311.643 207.474 311.732 206.987 311.732 206.467C311.732 205.948 311.643 205.467 311.466 205.023C311.288 204.567 311.041 204.175 310.725 203.845C310.421 203.516 310.053 203.256 309.623 203.066C309.205 202.876 308.755 202.781 308.274 202.781C307.792 202.781 307.336 202.876 306.906 203.066C306.488 203.256 306.12 203.516 305.804 203.845C305.5 204.175 305.253 204.567 305.063 205.023C304.885 205.467 304.797 205.948 304.797 206.467C304.797 206.987 304.885 207.474 305.063 207.93C305.24 208.374 305.481 208.766 305.785 209.108C306.101 209.438 306.475 209.697 306.906 209.887C307.336 210.077 307.792 210.172 308.274 210.172ZM316.421 201.717V207.455C316.421 208.291 316.662 208.956 317.143 209.45C317.625 209.944 318.271 210.191 319.081 210.191C319.651 210.191 320.158 210.065 320.601 209.811C321.057 209.545 321.425 209.178 321.703 208.709V201.717H323.109V211.236H321.703V210.134C321.336 210.565 320.899 210.888 320.392 211.103C319.898 211.319 319.341 211.426 318.72 211.426C317.631 211.426 316.744 211.084 316.06 210.4C315.376 209.716 315.034 208.83 315.034 207.74V201.717H316.421ZM325.5 211.236V201.717H326.906V202.838C327.273 202.408 327.71 202.085 328.217 201.869C328.724 201.641 329.287 201.527 329.908 201.527C330.985 201.527 331.865 201.869 332.549 202.553C333.233 203.237 333.575 204.124 333.575 205.213V211.236H332.188V205.498C332.188 204.662 331.947 203.997 331.466 203.503C330.985 203.009 330.339 202.762 329.528 202.762C328.958 202.762 328.445 202.889 327.989 203.142C327.546 203.396 327.185 203.757 326.906 204.225V211.236H325.5ZM343.357 211.236V210.229C342.951 210.609 342.483 210.901 341.951 211.103C341.431 211.293 340.874 211.388 340.279 211.388C339.607 211.388 338.98 211.262 338.398 211.008C337.815 210.755 337.308 210.413 336.878 209.982C336.447 209.539 336.105 209.013 335.852 208.405C335.611 207.797 335.491 207.151 335.491 206.467C335.491 205.783 335.611 205.144 335.852 204.548C336.105 203.94 336.447 203.421 336.878 202.99C337.308 202.547 337.815 202.199 338.398 201.945C338.993 201.692 339.626 201.565 340.298 201.565C340.842 201.565 341.374 201.66 341.894 201.85C342.426 202.028 342.907 202.294 343.338 202.648V197.936L344.744 197.613V211.236H343.357ZM336.878 206.448C336.878 206.968 336.966 207.455 337.144 207.911C337.334 208.367 337.587 208.76 337.904 209.089C338.22 209.419 338.594 209.678 339.025 209.868C339.455 210.058 339.918 210.153 340.412 210.153C341.007 210.153 341.558 210.039 342.065 209.811C342.584 209.571 343.008 209.241 343.338 208.823V204.111C343.008 203.706 342.584 203.389 342.065 203.161C341.545 202.921 340.994 202.8 340.412 202.8C339.424 202.8 338.588 203.149 337.904 203.845C337.22 204.542 336.878 205.41 336.878 206.448ZM347.249 207.55L347.078 197.613H348.541L348.37 207.55H347.249ZM347.819 211.35C347.553 211.35 347.325 211.255 347.135 211.065C346.945 210.875 346.85 210.647 346.85 210.381C346.85 210.115 346.945 209.887 347.135 209.697C347.325 209.507 347.553 209.412 347.819 209.412C348.085 209.412 348.313 209.507 348.503 209.697C348.693 209.887 348.788 210.115 348.788 210.381C348.788 210.647 348.693 210.875 348.503 211.065C348.313 211.255 348.085 211.35 347.819 211.35Z" fill="#FA5652"/>
<g clip-path="url(#clip1)">
<path d="M292.206 86.9869C271.274 78.8173 248.444 92.9186 248.455 112.828C248.418 132.686 270.928 146.414 291.425 139.001C317.234 129.608 317.522 96.9245 292.206 86.9869Z" fill="#F4D44E"/>
<path d="M269.527 134.432C249.829 124.184 248.633 99.0893 266.851 87.2454C261.083 89.5838 256.047 93.5161 252.643 98.8285C244.02 112.288 249.138 129.498 264.074 137.268C275.066 142.987 288.312 141.999 297.978 135.715C289.133 139.301 278.568 139.135 269.527 134.432Z" fill="#E8C842"/>
<path d="M293.637 113.269C291.707 112.255 289.534 111.957 287.518 112.431C287.014 112.551 286.498 112.277 286.366 111.823C286.234 111.368 286.537 110.903 287.041 110.784C289.545 110.196 292.225 110.556 294.589 111.799C295.039 112.036 295.191 112.557 294.928 112.963C294.666 113.368 294.088 113.507 293.637 113.269Z" fill="#656566"/>
<path d="M264.562 112.964C264.299 112.557 264.451 112.036 264.902 111.8C267.265 110.557 269.946 110.196 272.449 110.785C272.954 110.904 273.256 111.369 273.124 111.823C272.993 112.278 272.477 112.551 271.972 112.432C269.956 111.958 267.783 112.255 265.854 113.27C265.405 113.505 264.826 113.371 264.562 112.964Z" fill="#656566"/>
<path d="M272.946 127.441C272.471 127.247 272.261 126.742 272.477 126.314C275.348 120.62 284.239 120.788 287.014 126.316C287.229 126.744 287.018 127.248 286.543 127.442C286.068 127.636 285.508 127.446 285.293 127.017C283.137 122.723 276.359 122.733 274.196 127.019C273.981 127.447 273.421 127.636 272.946 127.441Z" fill="#656566"/>
<path d="M259.073 103.214C264.183 103.214 267.611 98.4847 265.556 94.2684L260.352 85.2696C259.874 84.4432 258.561 84.444 258.084 85.2711L252.762 94.5051C250.761 98.6098 254.098 103.214 259.073 103.214Z" fill="#9CD7F2"/>
<path d="M257.51 96.1141L259.442 85.8553C259.517 85.4558 259.796 85.1618 260.148 85.0105C259.572 84.4559 258.504 84.5423 258.084 85.271L252.762 94.5051C250.761 98.6098 254.098 103.214 259.073 103.214C260.166 103.214 261.181 102.997 262.083 102.616C259.235 101.707 257.164 99.1401 257.51 96.1141Z" fill="#71C5DB"/>
</g>
</g>
<path d="M89.7503 535.829H88.3463L85.6283 523.229H87.0323L89.1743 533.633L92.2883 523.229H93.6383L96.7523 533.597L98.9123 523.229H100.262L97.5443 535.829H96.1403L92.9543 525.155L89.7503 535.829ZM108.775 534.875C108.271 535.247 107.743 535.529 107.191 535.721C106.651 535.901 106.057 535.991 105.409 535.991C104.761 535.991 104.149 535.871 103.573 535.631C103.009 535.391 102.517 535.061 102.097 534.641C101.689 534.221 101.365 533.729 101.125 533.165C100.885 532.589 100.765 531.971 100.765 531.311C100.765 530.663 100.879 530.057 101.107 529.493C101.347 528.929 101.665 528.437 102.061 528.017C102.457 527.597 102.925 527.267 103.465 527.027C104.017 526.787 104.599 526.667 105.211 526.667C105.811 526.667 106.369 526.787 106.885 527.027C107.413 527.267 107.863 527.597 108.235 528.017C108.619 528.437 108.919 528.929 109.135 529.493C109.363 530.057 109.477 530.663 109.477 531.311V531.725H102.079C102.175 532.613 102.541 533.351 103.177 533.939C103.813 534.527 104.575 534.821 105.463 534.821C105.931 534.821 106.387 534.749 106.831 534.605C107.275 534.461 107.647 534.257 107.947 533.993L108.775 534.875ZM105.175 527.837C104.395 527.837 103.717 528.101 103.141 528.629C102.577 529.157 102.235 529.835 102.115 530.663H108.145C108.025 529.871 107.683 529.205 107.119 528.665C106.567 528.113 105.919 527.837 105.175 527.837ZM118.159 535.829H116.863L114.325 526.811H115.639L117.583 534.011L119.833 526.811H121.021L123.253 534.011L125.215 526.811H126.475L123.919 535.829H122.641L120.409 528.611L118.159 535.829ZM128.529 525.083C128.289 525.083 128.079 524.993 127.899 524.813C127.719 524.633 127.629 524.423 127.629 524.183C127.629 523.931 127.719 523.721 127.899 523.553C128.079 523.373 128.289 523.283 128.529 523.283C128.781 523.283 128.991 523.373 129.159 523.553C129.339 523.721 129.429 523.931 129.429 524.183C129.429 524.423 129.339 524.633 129.159 524.813C128.991 524.993 128.781 525.083 128.529 525.083ZM129.195 526.811V535.829H127.863V526.811H129.195ZM132.798 522.923V535.829H131.466V523.229L132.798 522.923ZM136.402 522.923V535.829H135.07V523.229L136.402 522.923ZM145.384 535.991C144.4 535.991 143.596 535.739 142.972 535.235C142.36 534.731 142.054 534.077 142.054 533.273C142.054 532.433 142.378 531.767 143.026 531.275C143.674 530.771 144.55 530.519 145.654 530.519C146.134 530.519 146.596 530.573 147.04 530.681C147.496 530.789 147.916 530.939 148.3 531.131V529.943C148.3 529.223 148.096 528.683 147.688 528.323C147.28 527.951 146.686 527.765 145.906 527.765C145.462 527.765 145.012 527.831 144.556 527.963C144.112 528.083 143.62 528.281 143.08 528.557L142.576 527.531C143.224 527.219 143.824 526.991 144.376 526.847C144.928 526.703 145.48 526.631 146.032 526.631C147.172 526.631 148.048 526.901 148.66 527.441C149.284 527.981 149.596 528.755 149.596 529.763V535.829H148.3V534.947C147.892 535.295 147.442 535.559 146.95 535.739C146.47 535.907 145.948 535.991 145.384 535.991ZM143.332 533.237C143.332 533.741 143.542 534.155 143.962 534.479C144.394 534.791 144.946 534.947 145.618 534.947C146.158 534.947 146.65 534.863 147.094 534.695C147.538 534.527 147.94 534.263 148.3 533.903V532.211C147.928 531.959 147.526 531.779 147.094 531.671C146.674 531.551 146.206 531.491 145.69 531.491C144.97 531.491 144.394 531.653 143.962 531.977C143.542 532.289 143.332 532.709 143.332 533.237ZM158.86 535.829V534.875C158.476 535.235 158.032 535.511 157.528 535.703C157.036 535.883 156.508 535.973 155.944 535.973C155.308 535.973 154.714 535.853 154.162 535.613C153.61 535.373 153.13 535.049 152.722 534.641C152.314 534.221 151.99 533.723 151.75 533.147C151.522 532.571 151.408 531.959 151.408 531.311C151.408 530.663 151.522 530.057 151.75 529.493C151.99 528.917 152.314 528.425 152.722 528.017C153.13 527.597 153.61 527.267 154.162 527.027C154.726 526.787 155.326 526.667 155.962 526.667C156.478 526.667 156.982 526.757 157.474 526.937C157.978 527.105 158.434 527.357 158.842 527.693V523.229L160.174 522.923V535.829H158.86ZM152.722 531.293C152.722 531.785 152.806 532.247 152.974 532.679C153.154 533.111 153.394 533.483 153.694 533.795C153.994 534.107 154.348 534.353 154.756 534.533C155.164 534.713 155.602 534.803 156.07 534.803C156.634 534.803 157.156 534.695 157.636 534.479C158.128 534.251 158.53 533.939 158.842 533.543V529.079C158.53 528.695 158.128 528.395 157.636 528.179C157.144 527.951 156.622 527.837 156.07 527.837C155.134 527.837 154.342 528.167 153.694 528.827C153.046 529.487 152.722 530.309 152.722 531.293ZM169.477 535.829V534.875C169.093 535.235 168.649 535.511 168.145 535.703C167.653 535.883 167.125 535.973 166.561 535.973C165.925 535.973 165.331 535.853 164.779 535.613C164.227 535.373 163.747 535.049 163.339 534.641C162.931 534.221 162.607 533.723 162.367 533.147C162.139 532.571 162.025 531.959 162.025 531.311C162.025 530.663 162.139 530.057 162.367 529.493C162.607 528.917 162.931 528.425 163.339 528.017C163.747 527.597 164.227 527.267 164.779 527.027C165.343 526.787 165.943 526.667 166.579 526.667C167.095 526.667 167.599 526.757 168.091 526.937C168.595 527.105 169.051 527.357 169.459 527.693V523.229L170.791 522.923V535.829H169.477ZM163.339 531.293C163.339 531.785 163.423 532.247 163.591 532.679C163.771 533.111 164.011 533.483 164.311 533.795C164.611 534.107 164.965 534.353 165.373 534.533C165.781 534.713 166.219 534.803 166.687 534.803C167.251 534.803 167.773 534.695 168.253 534.479C168.745 534.251 169.147 533.939 169.459 533.543V529.079C169.147 528.695 168.745 528.395 168.253 528.179C167.761 527.951 167.239 527.837 166.687 527.837C165.751 527.837 164.959 528.167 164.311 528.827C163.663 529.487 163.339 530.309 163.339 531.293ZM176.005 534.587L176.815 533.723C177.223 534.107 177.679 534.407 178.183 534.623C178.699 534.827 179.221 534.929 179.749 534.929C180.469 534.929 181.057 534.779 181.513 534.479C181.969 534.179 182.197 533.789 182.197 533.309C182.197 532.925 182.059 532.625 181.783 532.409C181.519 532.181 181.099 532.025 180.523 531.941L178.957 531.725C178.057 531.593 177.385 531.329 176.941 530.933C176.509 530.525 176.293 529.979 176.293 529.295C176.293 528.539 176.611 527.915 177.247 527.423C177.883 526.919 178.693 526.667 179.677 526.667C180.325 526.667 180.937 526.763 181.513 526.955C182.101 527.147 182.671 527.447 183.223 527.855L182.521 528.755C182.017 528.419 181.525 528.167 181.045 527.999C180.577 527.831 180.097 527.747 179.605 527.747C178.993 527.747 178.489 527.885 178.093 528.161C177.709 528.437 177.517 528.797 177.517 529.241C177.517 529.625 177.649 529.925 177.913 530.141C178.177 530.345 178.603 530.489 179.191 530.573L180.757 530.789C181.657 530.909 182.329 531.179 182.773 531.599C183.229 532.007 183.457 532.553 183.457 533.237C183.457 533.621 183.361 533.987 183.169 534.335C182.989 534.671 182.731 534.965 182.395 535.217C182.071 535.457 181.687 535.649 181.243 535.793C180.799 535.925 180.319 535.991 179.803 535.991C179.059 535.991 178.357 535.871 177.697 535.631C177.049 535.379 176.485 535.031 176.005 534.587ZM184.63 531.311C184.63 530.663 184.75 530.051 184.99 529.475C185.23 528.899 185.554 528.401 185.962 527.981C186.382 527.561 186.874 527.231 187.438 526.991C188.002 526.751 188.602 526.631 189.238 526.631C189.874 526.631 190.468 526.751 191.02 526.991C191.584 527.231 192.07 527.561 192.478 527.981C192.898 528.401 193.228 528.899 193.468 529.475C193.708 530.051 193.828 530.663 193.828 531.311C193.828 531.971 193.708 532.589 193.468 533.165C193.228 533.741 192.898 534.239 192.478 534.659C192.07 535.079 191.584 535.409 191.02 535.649C190.468 535.889 189.874 536.009 189.238 536.009C188.602 536.009 188.002 535.889 187.438 535.649C186.874 535.409 186.382 535.079 185.962 534.659C185.554 534.239 185.23 533.741 184.99 533.165C184.75 532.589 184.63 531.971 184.63 531.311ZM189.238 534.821C189.694 534.821 190.12 534.731 190.516 534.551C190.924 534.371 191.272 534.125 191.56 533.813C191.86 533.489 192.094 533.117 192.262 532.697C192.43 532.265 192.514 531.803 192.514 531.311C192.514 530.819 192.43 530.363 192.262 529.943C192.094 529.511 191.86 529.139 191.56 528.827C191.272 528.515 190.924 528.269 190.516 528.089C190.12 527.909 189.694 527.819 189.238 527.819C188.782 527.819 188.35 527.909 187.942 528.089C187.546 528.269 187.198 528.515 186.898 528.827C186.61 529.139 186.376 529.511 186.196 529.943C186.028 530.363 185.944 530.819 185.944 531.311C185.944 531.803 186.028 532.265 186.196 532.697C186.364 533.117 186.592 533.489 186.88 533.813C187.18 534.125 187.534 534.371 187.942 534.551C188.35 534.731 188.782 534.821 189.238 534.821ZM195.679 535.829V526.811H197.011V527.801C197.347 527.417 197.737 527.129 198.181 526.937C198.625 526.733 199.117 526.631 199.657 526.631C200.281 526.631 200.839 526.781 201.331 527.081C201.835 527.369 202.225 527.765 202.501 528.269C202.873 527.717 203.317 527.309 203.833 527.045C204.361 526.769 204.949 526.631 205.597 526.631C206.569 526.631 207.361 526.955 207.973 527.603C208.597 528.251 208.909 529.091 208.909 530.123V535.829H207.595V530.393C207.595 529.601 207.385 528.971 206.965 528.503C206.545 528.035 205.975 527.801 205.255 527.801C204.763 527.801 204.313 527.927 203.905 528.179C203.497 528.431 203.149 528.797 202.861 529.277C202.885 529.409 202.903 529.547 202.915 529.691C202.939 529.823 202.951 529.967 202.951 530.123V535.829H201.637V530.393C201.637 529.601 201.427 528.971 201.007 528.503C200.587 528.035 200.023 527.801 199.315 527.801C198.835 527.801 198.397 527.915 198.001 528.143C197.617 528.359 197.287 528.683 197.011 529.115V535.829H195.679ZM218.744 534.875C218.24 535.247 217.712 535.529 217.16 535.721C216.62 535.901 216.026 535.991 215.378 535.991C214.73 535.991 214.118 535.871 213.542 535.631C212.978 535.391 212.486 535.061 212.066 534.641C211.658 534.221 211.334 533.729 211.094 533.165C210.854 532.589 210.734 531.971 210.734 531.311C210.734 530.663 210.848 530.057 211.076 529.493C211.316 528.929 211.634 528.437 212.03 528.017C212.426 527.597 212.894 527.267 213.434 527.027C213.986 526.787 214.568 526.667 215.18 526.667C215.78 526.667 216.338 526.787 216.854 527.027C217.382 527.267 217.832 527.597 218.204 528.017C218.588 528.437 218.888 528.929 219.104 529.493C219.332 530.057 219.446 530.663 219.446 531.311V531.725H212.048C212.144 532.613 212.51 533.351 213.146 533.939C213.782 534.527 214.544 534.821 215.432 534.821C215.9 534.821 216.356 534.749 216.8 534.605C217.244 534.461 217.616 534.257 217.916 533.993L218.744 534.875ZM215.144 527.837C214.364 527.837 213.686 528.101 213.11 528.629C212.546 529.157 212.204 529.835 212.084 530.663H218.114C217.994 529.871 217.652 529.205 217.088 528.665C216.536 528.113 215.888 527.837 215.144 527.837ZM225.175 539.519V526.811H226.489V527.783C226.873 527.411 227.311 527.135 227.803 526.955C228.307 526.763 228.841 526.667 229.405 526.667C230.041 526.667 230.635 526.787 231.187 527.027C231.739 527.267 232.219 527.597 232.627 528.017C233.035 528.425 233.353 528.917 233.581 529.493C233.821 530.057 233.941 530.663 233.941 531.311C233.941 531.959 233.821 532.571 233.581 533.147C233.353 533.723 233.035 534.221 232.627 534.641C232.219 535.049 231.733 535.373 231.169 535.613C230.617 535.853 230.023 535.973 229.387 535.973C228.859 535.973 228.349 535.883 227.857 535.703C227.365 535.523 226.915 535.265 226.507 534.929V539.519H225.175ZM229.279 527.837C228.715 527.837 228.187 527.951 227.695 528.179C227.215 528.395 226.819 528.701 226.507 529.097V533.561C226.819 533.945 227.221 534.251 227.713 534.479C228.205 534.695 228.727 534.803 229.279 534.803C230.227 534.803 231.019 534.473 231.655 533.813C232.303 533.141 232.627 532.313 232.627 531.329C232.627 530.837 232.537 530.381 232.357 529.961C232.189 529.529 231.955 529.157 231.655 528.845C231.355 528.533 231.001 528.287 230.593 528.107C230.185 527.927 229.747 527.837 229.279 527.837ZM235.792 535.829V526.811H237.124V528.089C237.388 527.621 237.736 527.261 238.168 527.009C238.6 526.745 239.092 526.613 239.644 526.613C239.812 526.613 239.962 526.625 240.094 526.649C240.226 526.661 240.358 526.691 240.49 526.739V527.963C240.334 527.915 240.178 527.879 240.022 527.855C239.866 527.819 239.71 527.801 239.554 527.801C239.002 527.801 238.516 527.963 238.096 528.287C237.676 528.599 237.352 529.055 237.124 529.655V535.829H235.792ZM240.951 531.311C240.951 530.663 241.071 530.051 241.311 529.475C241.551 528.899 241.875 528.401 242.283 527.981C242.703 527.561 243.195 527.231 243.759 526.991C244.323 526.751 244.923 526.631 245.559 526.631C246.195 526.631 246.789 526.751 247.341 526.991C247.905 527.231 248.391 527.561 248.799 527.981C249.219 528.401 249.549 528.899 249.789 529.475C250.029 530.051 250.149 530.663 250.149 531.311C250.149 531.971 250.029 532.589 249.789 533.165C249.549 533.741 249.219 534.239 248.799 534.659C248.391 535.079 247.905 535.409 247.341 535.649C246.789 535.889 246.195 536.009 245.559 536.009C244.923 536.009 244.323 535.889 243.759 535.649C243.195 535.409 242.703 535.079 242.283 534.659C241.875 534.239 241.551 533.741 241.311 533.165C241.071 532.589 240.951 531.971 240.951 531.311ZM245.559 534.821C246.015 534.821 246.441 534.731 246.837 534.551C247.245 534.371 247.593 534.125 247.881 533.813C248.181 533.489 248.415 533.117 248.583 532.697C248.751 532.265 248.835 531.803 248.835 531.311C248.835 530.819 248.751 530.363 248.583 529.943C248.415 529.511 248.181 529.139 247.881 528.827C247.593 528.515 247.245 528.269 246.837 528.089C246.441 527.909 246.015 527.819 245.559 527.819C245.103 527.819 244.671 527.909 244.263 528.089C243.867 528.269 243.519 528.515 243.219 528.827C242.931 529.139 242.697 529.511 242.517 529.943C242.349 530.363 242.265 530.819 242.265 531.311C242.265 531.803 242.349 532.265 242.517 532.697C242.685 533.117 242.913 533.489 243.201 533.813C243.501 534.125 243.855 534.371 244.263 534.551C244.671 534.731 245.103 534.821 245.559 534.821ZM259.055 535.829V534.875C258.671 535.235 258.227 535.511 257.723 535.703C257.231 535.883 256.703 535.973 256.139 535.973C255.503 535.973 254.909 535.853 254.357 535.613C253.805 535.373 253.325 535.049 252.917 534.641C252.509 534.221 252.185 533.723 251.945 533.147C251.717 532.571 251.603 531.959 251.603 531.311C251.603 530.663 251.717 530.057 251.945 529.493C252.185 528.917 252.509 528.425 252.917 528.017C253.325 527.597 253.805 527.267 254.357 527.027C254.921 526.787 255.521 526.667 256.157 526.667C256.673 526.667 257.177 526.757 257.669 526.937C258.173 527.105 258.629 527.357 259.037 527.693V523.229L260.369 522.923V535.829H259.055ZM252.917 531.293C252.917 531.785 253.001 532.247 253.169 532.679C253.349 533.111 253.589 533.483 253.889 533.795C254.189 534.107 254.543 534.353 254.951 534.533C255.359 534.713 255.797 534.803 256.265 534.803C256.829 534.803 257.351 534.695 257.831 534.479C258.323 534.251 258.725 533.939 259.037 533.543V529.079C258.725 528.695 258.323 528.395 257.831 528.179C257.339 527.951 256.817 527.837 256.265 527.837C255.329 527.837 254.537 528.167 253.889 528.827C253.241 529.487 252.917 530.309 252.917 531.293ZM263.912 526.811V532.247C263.912 533.039 264.14 533.669 264.596 534.137C265.052 534.605 265.664 534.839 266.432 534.839C266.972 534.839 267.452 534.719 267.872 534.479C268.304 534.227 268.652 533.879 268.916 533.435V526.811H270.248V535.829H268.916V534.785C268.568 535.193 268.154 535.499 267.674 535.703C267.206 535.907 266.678 536.009 266.09 536.009C265.058 536.009 264.218 535.685 263.57 535.037C262.922 534.389 262.598 533.549 262.598 532.517V526.811H263.912ZM276.725 534.785C277.205 534.785 277.667 534.689 278.111 534.497C278.555 534.305 278.969 534.023 279.353 533.651L280.181 534.551C279.701 535.007 279.161 535.361 278.561 535.613C277.961 535.865 277.337 535.991 276.689 535.991C276.053 535.991 275.453 535.871 274.889 535.631C274.325 535.391 273.839 535.061 273.431 534.641C273.023 534.221 272.699 533.723 272.459 533.147C272.219 532.571 272.099 531.959 272.099 531.311C272.099 530.663 272.219 530.057 272.459 529.493C272.699 528.917 273.023 528.419 273.431 527.999C273.839 527.579 274.325 527.249 274.889 527.009C275.453 526.757 276.053 526.631 276.689 526.631C277.337 526.631 277.967 526.757 278.579 527.009C279.203 527.261 279.749 527.609 280.217 528.053L279.371 529.025C279.011 528.653 278.597 528.365 278.129 528.161C277.661 527.957 277.187 527.855 276.707 527.855C276.251 527.855 275.819 527.945 275.411 528.125C275.003 528.305 274.649 528.551 274.349 528.863C274.061 529.175 273.833 529.541 273.665 529.961C273.497 530.381 273.413 530.831 273.413 531.311C273.413 531.803 273.497 532.265 273.665 532.697C273.845 533.117 274.079 533.483 274.367 533.795C274.667 534.095 275.021 534.335 275.429 534.515C275.837 534.695 276.269 534.785 276.725 534.785ZM283.033 533.813V527.945H281.089V526.811H283.033V524.525L284.347 524.183V526.811H287.065V527.945H284.347V533.471C284.347 533.951 284.455 534.299 284.671 534.515C284.887 534.719 285.241 534.821 285.733 534.821C285.985 534.821 286.207 534.803 286.399 534.767C286.603 534.731 286.819 534.671 287.047 534.587V535.757C286.819 535.841 286.561 535.901 286.273 535.937C285.997 535.973 285.727 535.991 285.463 535.991C284.683 535.991 284.083 535.805 283.663 535.433C283.243 535.061 283.033 534.521 283.033 533.813ZM291.441 534.587L292.251 533.723C292.659 534.107 293.115 534.407 293.619 534.623C294.135 534.827 294.657 534.929 295.185 534.929C295.905 534.929 296.493 534.779 296.949 534.479C297.405 534.179 297.633 533.789 297.633 533.309C297.633 532.925 297.495 532.625 297.219 532.409C296.955 532.181 296.535 532.025 295.959 531.941L294.393 531.725C293.493 531.593 292.821 531.329 292.377 530.933C291.945 530.525 291.729 529.979 291.729 529.295C291.729 528.539 292.047 527.915 292.683 527.423C293.319 526.919 294.129 526.667 295.113 526.667C295.761 526.667 296.373 526.763 296.949 526.955C297.537 527.147 298.107 527.447 298.659 527.855L297.957 528.755C297.453 528.419 296.961 528.167 296.481 527.999C296.013 527.831 295.533 527.747 295.041 527.747C294.429 527.747 293.925 527.885 293.529 528.161C293.145 528.437 292.953 528.797 292.953 529.241C292.953 529.625 293.085 529.925 293.349 530.141C293.613 530.345 294.039 530.489 294.627 530.573L296.193 530.789C297.093 530.909 297.765 531.179 298.209 531.599C298.665 532.007 298.893 532.553 298.893 533.237C298.893 533.621 298.797 533.987 298.605 534.335C298.425 534.671 298.167 534.965 297.831 535.217C297.507 535.457 297.123 535.649 296.679 535.793C296.235 535.925 295.755 535.991 295.239 535.991C294.495 535.991 293.793 535.871 293.133 535.631C292.485 535.379 291.921 535.031 291.441 534.587ZM300.066 531.311C300.066 530.663 300.186 530.051 300.426 529.475C300.666 528.899 300.99 528.401 301.398 527.981C301.818 527.561 302.31 527.231 302.874 526.991C303.438 526.751 304.038 526.631 304.674 526.631C305.31 526.631 305.904 526.751 306.456 526.991C307.02 527.231 307.506 527.561 307.914 527.981C308.334 528.401 308.664 528.899 308.904 529.475C309.144 530.051 309.264 530.663 309.264 531.311C309.264 531.971 309.144 532.589 308.904 533.165C308.664 533.741 308.334 534.239 307.914 534.659C307.506 535.079 307.02 535.409 306.456 535.649C305.904 535.889 305.31 536.009 304.674 536.009C304.038 536.009 303.438 535.889 302.874 535.649C302.31 535.409 301.818 535.079 301.398 534.659C300.99 534.239 300.666 533.741 300.426 533.165C300.186 532.589 300.066 531.971 300.066 531.311ZM304.674 534.821C305.13 534.821 305.556 534.731 305.952 534.551C306.36 534.371 306.708 534.125 306.996 533.813C307.296 533.489 307.53 533.117 307.698 532.697C307.866 532.265 307.95 531.803 307.95 531.311C307.95 530.819 307.866 530.363 307.698 529.943C307.53 529.511 307.296 529.139 306.996 528.827C306.708 528.515 306.36 528.269 305.952 528.089C305.556 527.909 305.13 527.819 304.674 527.819C304.218 527.819 303.786 527.909 303.378 528.089C302.982 528.269 302.634 528.515 302.334 528.827C302.046 529.139 301.812 529.511 301.632 529.943C301.464 530.363 301.38 530.819 301.38 531.311C301.38 531.803 301.464 532.265 301.632 532.697C301.8 533.117 302.028 533.489 302.316 533.813C302.616 534.125 302.97 534.371 303.378 534.551C303.786 534.731 304.218 534.821 304.674 534.821ZM310.718 531.311C310.718 530.663 310.838 530.051 311.078 529.475C311.318 528.899 311.642 528.401 312.05 527.981C312.47 527.561 312.962 527.231 313.526 526.991C314.09 526.751 314.69 526.631 315.326 526.631C315.962 526.631 316.556 526.751 317.108 526.991C317.672 527.231 318.158 527.561 318.566 527.981C318.986 528.401 319.316 528.899 319.556 529.475C319.796 530.051 319.916 530.663 319.916 531.311C319.916 531.971 319.796 532.589 319.556 533.165C319.316 533.741 318.986 534.239 318.566 534.659C318.158 535.079 317.672 535.409 317.108 535.649C316.556 535.889 315.962 536.009 315.326 536.009C314.69 536.009 314.09 535.889 313.526 535.649C312.962 535.409 312.47 535.079 312.05 534.659C311.642 534.239 311.318 533.741 311.078 533.165C310.838 532.589 310.718 531.971 310.718 531.311ZM315.326 534.821C315.782 534.821 316.208 534.731 316.604 534.551C317.012 534.371 317.36 534.125 317.648 533.813C317.948 533.489 318.182 533.117 318.35 532.697C318.518 532.265 318.602 531.803 318.602 531.311C318.602 530.819 318.518 530.363 318.35 529.943C318.182 529.511 317.948 529.139 317.648 528.827C317.36 528.515 317.012 528.269 316.604 528.089C316.208 527.909 315.782 527.819 315.326 527.819C314.87 527.819 314.438 527.909 314.03 528.089C313.634 528.269 313.286 528.515 312.986 528.827C312.698 529.139 312.464 529.511 312.284 529.943C312.116 530.363 312.032 530.819 312.032 531.311C312.032 531.803 312.116 532.265 312.284 532.697C312.452 533.117 312.68 533.489 312.968 533.813C313.268 534.125 313.622 534.371 314.03 534.551C314.438 534.731 314.87 534.821 315.326 534.821ZM321.767 535.829V526.811H323.099V527.873C323.447 527.465 323.861 527.159 324.341 526.955C324.821 526.739 325.355 526.631 325.943 526.631C326.963 526.631 327.797 526.955 328.445 527.603C329.093 528.251 329.417 529.091 329.417 530.123V535.829H328.103V530.393C328.103 529.601 327.875 528.971 327.419 528.503C326.963 528.035 326.351 527.801 325.583 527.801C325.043 527.801 324.557 527.921 324.125 528.161C323.705 528.401 323.363 528.743 323.099 529.187V535.829H321.767ZM331.754 532.337L331.592 522.923H332.978L332.816 532.337H331.754ZM332.294 535.937C332.042 535.937 331.826 535.847 331.646 535.667C331.466 535.487 331.376 535.271 331.376 535.019C331.376 534.767 331.466 534.551 331.646 534.371C331.826 534.191 332.042 534.101 332.294 534.101C332.546 534.101 332.762 534.191 332.942 534.371C333.122 534.551 333.212 534.767 333.212 535.019C333.212 535.271 333.122 535.487 332.942 535.667C332.762 535.847 332.546 535.937 332.294 535.937Z" fill="#FA5652"/>
<defs>
<linearGradient id="paint0_linear" x1="40.5424" y1="344.576" x2="269.342" y2="344.576" gradientUnits="userSpaceOnUse">
<stop stop-color="#4B45BD"/>
<stop offset="1" stop-color="#58CAEA"/>
</linearGradient>
<linearGradient id="paint1_linear" x1="127.198" y1="67.4551" x2="212.237" y2="62.0056" gradientUnits="userSpaceOnUse">
<stop stop-color="#F87B58"/>
<stop offset="0.41" stop-color="#F89453"/>
<stop offset="0.94" stop-color="#F8C548"/>
</linearGradient>
<linearGradient id="paint2_linear" x1="240.079" y1="273.276" x2="284.902" y2="270.403" gradientUnits="userSpaceOnUse">
<stop stop-color="#F87B58"/>
<stop offset="0.41" stop-color="#F89453"/>
<stop offset="0.94" stop-color="#F8C548"/>
</linearGradient>
<linearGradient id="paint3_linear" x1="43.0024" y1="65.8902" x2="115.269" y2="61.2588" gradientUnits="userSpaceOnUse">
<stop stop-color="#F87B58"/>
<stop offset="0.41" stop-color="#F89453"/>
<stop offset="0.94" stop-color="#F8C548"/>
</linearGradient>
<linearGradient id="paint4_linear" x1="1.84405e-05" y1="176.807" x2="250.437" y2="176.807" gradientUnits="userSpaceOnUse">
<stop stop-color="#E5A4ED"/>
<stop offset="1" stop-color="#7A5BF5"/>
</linearGradient>
<linearGradient id="paint5_linear" x1="41.548" y1="44.9352" x2="104.121" y2="13.6891" gradientUnits="userSpaceOnUse">
<stop stop-color="#4B45BD"/>
<stop offset="1" stop-color="#58CAEA"/>
</linearGradient>
<clipPath id="clip0">
<rect width="411" height="490.628" fill="white"/>
</clipPath>
<clipPath id="clip1">
<rect width="62.6094" height="56.4171" fill="white" transform="translate(248.418 84.6257)"/>
</clipPath>
</defs>
</svg>
