<svg xmlns="http://www.w3.org/2000/svg" xmlns:xlink="http://www.w3.org/1999/xlink" width="360.89" height="210.535" viewBox="0 0 360.89 210.535">
  <defs>
    <style>
      .cls-1 {
        fill: #f89a6e;
      }

      .cls-2 {
        fill: #f2a62f;
      }

      .cls-3 {
        fill: #ffd8d8;
      }

      .cls-4 {
        fill: #fd2b2b;
      }

      .cls-5 {
        fill: #eaedfb;
      }

      .cls-6 {
        fill: #fff;
      }

      .cls-7 {
        opacity: 0.57;
      }

      .cls-11, .cls-27, .cls-8, .cls-9 {
        fill: none;
      }

      .cls-8 {
        stroke: #a2c9f8;
        stroke-width: 3.01px;
      }

      .cls-11, .cls-27, .cls-8 {
        stroke-linecap: round;
        stroke-linejoin: round;
      }

      .cls-11, .cls-9 {
        stroke: #fff;
      }

      .cls-9 {
        stroke-miterlimit: 10;
        stroke-width: 2.81px;
      }

      .cls-10 {
        fill: #f04365;
      }

      .cls-11 {
        stroke-width: 4.21px;
      }

      .cls-12 {
        fill: #1b1754;
      }

      .cls-13 {
        fill: #243051;
      }

      .cls-14 {
        fill: #2a2b7b;
      }

      .cls-15 {
        fill: #d72e57;
      }

      .cls-16 {
        fill: #e88057;
      }

      .cls-17 {
        clip-path: url(#clip-path);
      }

      .cls-18 {
        fill: #fdd63b;
      }

      .cls-19 {
        clip-path: url(#clip-path-2);
      }

      .cls-20 {
        fill: #f97d7d;
      }

      .cls-21 {
        clip-path: url(#clip-path-3);
      }

      .cls-22 {
        fill: #fafafa;
      }

      .cls-23 {
        fill: #efc3c3;
      }

      .cls-24 {
        fill: #fa3939;
      }

      .cls-25 {
        clip-path: url(#clip-path-4);
      }

      .cls-26 {
        fill: #eb9924;
      }

      .cls-27 {
        stroke: #102236;
        stroke-width: 0.65px;
      }
    </style>
    <clipPath id="clip-path">
      <path id="Path_87" data-name="Path 87" class="cls-1" d="M551.86,202.54a8.28,8.28,0,1,0,11.7-.44A8.28,8.28,0,0,0,551.86,202.54Z"/>
    </clipPath>
    <clipPath id="clip-path-2">
      <path id="Path_101" data-name="Path 101" class="cls-1" d="M335.51,117.29a8.28,8.28,0,1,0,8.43-8.13,8.28,8.28,0,0,0-8.43,8.13Z"/>
    </clipPath>
    <clipPath id="clip-path-3">
      <path id="Path_119" data-name="Path 119" class="cls-2" d="M500.77,311.9l9.89-25.54a1.42,1.42,0,0,1,2.66,0l9.88,25.54Z"/>
    </clipPath>
    <clipPath id="clip-path-4">
      <rect id="Rectangle_13" data-name="Rectangle 13" class="cls-2" width="64.89" height="19.7" rx="5.14" transform="translate(298.31 264.55)"/>
    </clipPath>
  </defs>
  <g id="Group_11" data-name="Group 11" transform="translate(-283.165 -332.06)">
    <g id="Group_8" data-name="Group 8" transform="translate(29 228)">
      <path id="Path_61" data-name="Path 61" class="cls-3" d="M561,313.42s54.25-24.13,53-72.81-52.68-71.32-87.59-41.26-57.51,4.85-75.59-20.55-58.44-57.46-111.37-42.65c-55.45,15.52-72.52,71.68-67,109.15,4,26.92,18.38,49.74,38,67.28.64.57,1.3,1.13,2,1.69Z"/>
      <rect id="Rectangle_3" data-name="Rectangle 3" class="cls-4" width="45.36" height="11.1" transform="translate(413.46 297.34)"/>
      <path id="Path_62" data-name="Path 62" class="cls-4" d="M467.38,314.23H404.9a2.9,2.9,0,0,1-2.9-2.9h0a2.89,2.89,0,0,1,2.9-2.89h62.48a2.89,2.89,0,0,1,2.9,2.89h0A2.9,2.9,0,0,1,467.38,314.23Z"/>
      <path id="Path_63" data-name="Path 63" class="cls-4" d="M538.18,169.63a6.54,6.54,0,0,0-6.54-6.55h-191a6.54,6.54,0,0,0-6.54,6.55V280.18H538.18Z"/>
      <rect id="Rectangle_4" data-name="Rectangle 4" class="cls-5" width="186.57" height="99.2" transform="translate(342.85 172.44)"/>
      <path id="Path_64" data-name="Path 64" class="cls-6" d="M340.64,298.48h191a6.54,6.54,0,0,0,6.54-6.55V280.18H334.1v11.75a6.54,6.54,0,0,0,6.54,6.55Z"/>
      <path id="Path_65" data-name="Path 65" class="cls-4" d="M440,289.33a3.88,3.88,0,1,1-3.88-3.88A3.88,3.88,0,0,1,440,289.33Z"/>
      <g id="Group_2" data-name="Group 2" class="cls-7">
        <path id="Path_66" data-name="Path 66" class="cls-6" d="M394.66,172.44l-42.59,99.21h15.07l43.06-99.21Z"/>
        <path id="Path_67" data-name="Path 67" class="cls-6" d="M503.33,172.44l-42.59,99.21h15.07l43.06-99.21Z"/>
        <path id="Path_68" data-name="Path 68" class="cls-6" d="M429.43,172.44l-42.6,99.21h44.62l43.06-99.21Z"/>
      </g>
      <rect id="Rectangle_5" data-name="Rectangle 5" class="cls-6" width="79.18" height="56.09" transform="translate(356.14 193.15)"/>
      <rect id="Rectangle_6" data-name="Rectangle 6" class="cls-8" width="79.18" height="56.09" transform="translate(356.14 193.15)"/>
      <line id="Line_1" data-name="Line 1" class="cls-9" x2="72.37" transform="translate(444.4 197.38)"/>
      <line id="Line_2" data-name="Line 2" class="cls-9" x2="44.5" transform="translate(444.4 214.31)"/>
      <line id="Line_3" data-name="Line 3" class="cls-9" x2="12.76" transform="translate(444.4 205.76)"/>
      <line id="Line_4" data-name="Line 4" class="cls-9" x2="72.37" transform="translate(444.4 225.31)"/>
      <line id="Line_5" data-name="Line 5" class="cls-9" x2="72.37" transform="translate(444.4 242.23)"/>
      <line id="Line_6" data-name="Line 6" class="cls-9" x2="42.7" transform="translate(444.4 233.68)"/>
      <circle id="Ellipse_1" data-name="Ellipse 1" class="cls-10" cx="17.4" cy="17.4" r="17.4" transform="matrix(0.178, -0.984, 0.984, 0.178, 373.931, 234.878)"/>
      <line id="Line_7" data-name="Line 7" class="cls-11" x2="17.09" transform="translate(385.35 220.87)"/>
      <path id="Path_69" data-name="Path 69" class="cls-12" d="M550.38,254.28l3.76,55.29,5.94-.01,1.23-55.31Z"/>
      <path id="Path_70" data-name="Path 70" class="cls-13" d="M549.22,314.1H560v-5h-5.8a5,5,0,0,0-5,5Z"/>
      <path id="Path_71" data-name="Path 71" class="cls-13" d="M562,314.1h11.29l-.46-5h-5.81a5,5,0,0,0-5,5Z"/>
      <path id="Path_72" data-name="Path 72" class="cls-14" d="M569.08,254.31l3.78,54.77-5.81.18-9.7-54.95Z"/>
      <path id="Path_73" data-name="Path 73" class="cls-10" d="M558.94,225.84l15.41,13.76a3.47,3.47,0,0,0,4.53.1h0a3.49,3.49,0,0,0,.45-5s-7.45-10-11.62-13.3Z"/>
      <path id="Path_74" data-name="Path 74" class="cls-1" d="M582.73,259.34a3.7,3.7,0,1,1-1.08-2.623A3.7,3.7,0,0,1,582.73,259.34Z"/>
      <path id="Path_75" data-name="Path 75" class="cls-10" d="M574.26,238.05l2,18.42h5.29l-1.21-19a3.06,3.06,0,0,0-3.54-2.81h0A3.07,3.07,0,0,0,574.26,238.05Z"/>
      <path id="Path_76" data-name="Path 76" class="cls-10" d="M557.36,218.85s-7.56.24-8,7.8.89,27.66.89,27.66h18.79l.48-24.56c1.17-6.56-2.15-10.73-8.89-11a29,29,0,0,0-3.27.1Z"/>
      <path id="Path_77" data-name="Path 77" class="cls-15" d="M569.45,235.22l-3.24-2.89,3.12,8.88Z"/>
      <path id="Path_78" data-name="Path 78" class="cls-1" d="M531.76,212.34a3.7,3.7,0,1,1-3.7-3.7A3.7,3.7,0,0,1,531.76,212.34Z"/>
      <path id="Path_79" data-name="Path 79" class="cls-10" d="M539.73,232.45l-8-18.1-5.08,1.6,7.19,18.32a3.07,3.07,0,0,0,4,2h0A3.07,3.07,0,0,0,539.73,232.45Z"/>
      <path id="Path_80" data-name="Path 80" class="cls-10" d="M554.42,219.52A111.066,111.066,0,0,0,535.49,230a3.47,3.47,0,0,0-1.61,4.23h0a3.48,3.48,0,0,0,4.53,2.07l15.19-7.39Z"/>
      <path id="Path_81" data-name="Path 81" class="cls-15" d="M549.32,231.01l.07-4.36-3.44,5.99Z"/>
      <path id="Path_82" data-name="Path 82" class="cls-1" d="M555.17,214.56l.24,5.08a2.8,2.8,0,0,0,1.77,2.48h0a2.82,2.82,0,0,0,3.85-2.87l-.31-5.05Z"/>
      <path id="Path_83" data-name="Path 83" class="cls-16" d="M555.34,218.19s4.71.64,5.38-4-4.48-2.72-4.48-2.72l-1,3.81Z"/>
      <path id="Path_84" data-name="Path 84" class="cls-1" d="M551.86,202.54a8.28,8.28,0,1,0,11.7-.44A8.28,8.28,0,0,0,551.86,202.54Z"/>
      <g id="Group_3" data-name="Group 3" class="cls-17">
        <path id="Path_85" data-name="Path 85" class="cls-13" d="M560.35,210.66s-3.26,5.92,1.33,7.54S567.6,207,567.6,207l-5-9.76-12.13-.84-.68,4.2s1.16,4.09,11.33,7.94Z"/>
        <path id="Path_86" data-name="Path 86" class="cls-13" d="M557.88,206.01l1.43,4.82,3.66-2.13Z"/>
      </g>
      <path id="Path_88" data-name="Path 88" class="cls-1" d="M559.55,209a2.21,2.21,0,1,0,1.54-.71A2.21,2.21,0,0,0,559.55,209Z"/>
      <path id="Path_89" data-name="Path 89" class="cls-18" d="M549.46,205.5s-.4-5.93,4.58-9A8.5,8.5,0,0,1,566,199.6c1.07,2,1.67,4,1,7.84Z"/>
      <path id="Path_90" data-name="Path 90" class="cls-2" d="M566.69,208.3h-.1l-19.87-2.13a.86.86,0,0,1,.19-1.71l19.87,2.13a.85.85,0,0,1,.76.95.86.86,0,0,1-.85.76Z"/>
      <circle id="Ellipse_2" data-name="Ellipse 2" class="cls-4" cx="15.48" cy="15.48" r="15.48" transform="translate(527.751 143.343) rotate(-76.76)"/>
      <path id="Path_91" data-name="Path 91" class="cls-6" d="M548.61,138.52a2.27,2.27,0,1,1-2.265-2.12,2.27,2.27,0,0,1,2.265,2.12Zm-.27-15.25-.1,11.17h-3.82c0-4.23-.07-6.92-.07-11.17Z"/>
      <path id="Path_92" data-name="Path 92" class="cls-3" d="M447.46,104.23l1.27,3.31a7.72,7.72,0,0,0,4.42,4.43l3.31,1.27-3.31,1.27a7.69,7.69,0,0,0-4.42,4.43l-1.27,3.31-1.28-3.31a7.69,7.69,0,0,0-4.42-4.43l-3.31-1.27,3.31-1.27a7.72,7.72,0,0,0,4.42-4.43Z"/>
      <path id="Path_93" data-name="Path 93" class="cls-3" d="M483,132.75l.85,2.21a5.12,5.12,0,0,0,3,3l2.21.85-2.21.86a5.12,5.12,0,0,0-3,3l-.85,2.21-.86-2.21a5.13,5.13,0,0,0-3-3l-2.22-.86,2.22-.85a5.13,5.13,0,0,0,3-3Z"/>
      <path id="Path_94" data-name="Path 94" class="cls-3" d="M267.81,151.7l.69,1.8a4.18,4.18,0,0,0,2.41,2.41l1.8.69-1.8.69a4.21,4.21,0,0,0-2.41,2.41l-.69,1.8-.7-1.8a4.21,4.21,0,0,0-2.41-2.41l-1.8-.69,1.8-.69a4.18,4.18,0,0,0,2.41-2.41Z"/>
      <path id="Path_95" data-name="Path 95" class="cls-3" d="M596.1,160.82l.69,1.81A4.24,4.24,0,0,0,599.2,165l1.8.69-1.8.69a4.21,4.21,0,0,0-2.41,2.41l-.69,1.8-.69-1.8a4.21,4.21,0,0,0-2.41-2.41l-1.8-.69L593,165a4.24,4.24,0,0,0,2.41-2.41Z"/>
      <path id="Path_96" data-name="Path 96" class="cls-1" d="M346,124l3.56,3.63a2.84,2.84,0,0,0,3,.67h0a2.82,2.82,0,0,0,.94-4.71l-3.6-3.56Z"/>
      <path id="Path_97" data-name="Path 97" class="cls-16" d="M348.55,126.63s2.23-4.6,1.34-6.56c-1.92-4.26-5.14,1-5.14,1l1.76,3.52Z"/>
      <path id="Path_98" data-name="Path 98" class="cls-1" d="M335.51,117.29a8.28,8.28,0,1,0,8.43-8.13,8.28,8.28,0,0,0-8.43,8.13Z"/>
      <g id="Group_4" data-name="Group 4" class="cls-19">
        <path id="Path_99" data-name="Path 99" class="cls-13" d="M347.26,117.68s1.51,6.59,6,4.73-3-12.27-3-12.27L340,106.2l-9.6,7.46,1.07,6.47s3.42-2.44,13.57-6.36Z"/>
        <path id="Path_100" data-name="Path 100" class="cls-13" d="M342.31,115.86l4.29,2.64,1.3-4.03Z"/>
      </g>
      <path id="Path_102" data-name="Path 102" class="cls-13" d="M347.73,119.24s7.15,19.46,16,10.58c7.88-7.88-4-12.67-7.27-13.51-2.47-.64-3.42-1.49-6.53-4.38l-6.19.89Z"/>
      <path id="Path_103" data-name="Path 103" class="cls-1" d="M345.56,117a2.22,2.22,0,1,0,2.25-2.17,2.22,2.22,0,0,0-2.25,2.17Z"/>
      <path id="Path_104" data-name="Path 104" class="cls-18" d="M334.7,118.57s-3.27-5-.44-10.09a8.5,8.5,0,0,1,11.91-3.16c1.92,1.23,3.41,2.64,4.7,6.36Z"/>
      <path id="Path_105" data-name="Path 105" class="cls-2" d="M351.08,112.55h-.09l-18.36,7.91a.87.87,0,0,1-1.13-.46.85.85,0,0,1,.46-1.13l18.35-7.9a.85.85,0,0,1,1.13.45A.86.86,0,0,1,351.08,112.55Z"/>
      <path id="Path_106" data-name="Path 106" class="cls-12" d="M334.35,164.85,316.06,183.6l-4.68-2.07,15.83-22.45a4.22,4.22,0,0,1,7-.33h0a6.52,6.52,0,0,1,.14,6.1Z"/>
      <path id="Path_107" data-name="Path 107" class="cls-13" d="M304.33,181.43l9.25,6.48,2.5-4.38-4.76-3.33a5,5,0,0,0-7,1.23Z"/>
      <path id="Path_108" data-name="Path 108" class="cls-14" d="M347,153.67,328.49,157l3.81,7.22h24.83s7.46-.17,4-8.36Z"/>
      <path id="Path_109" data-name="Path 109" class="cls-14" d="M335.32,159.32l8.81,29.15-5,2.85L325.2,163.16a4.23,4.23,0,0,1,3.29-6.2h0C330.28,156.78,334.55,157.72,335.32,159.32Z"/>
      <path id="Path_110" data-name="Path 110" class="cls-13" d="M336.89,198l9.23-4.86-2-4.63L339,191.18a5,5,0,0,0-2.1,6.78Z"/>
      <path id="Path_111" data-name="Path 111" class="cls-10" d="M345.93,131.72s.75-3.27,1.7-4.28c.67-.72,3.1-3,4.44-3.5a1.39,1.39,0,0,1,1.19.12,19.8,19.8,0,0,1,8.14,10.62c2.07,6.23,2.52,24,2.52,24-5.9,3.83-16.93-5-16.93-5C347.28,142.62,344.55,142.06,345.93,131.72Z"/>
      <path id="Path_112" data-name="Path 112" class="cls-15" d="M344.75,154.07l8.69.39a4,4,0,0,0,4.4-3.89l.38-15Z"/>
      <path id="Path_113" data-name="Path 113" class="cls-20" d="M336.92,151.94l-5.14-1.84a1.25,1.25,0,0,0-1.22.21l-2.29,1.86a1.15,1.15,0,0,0,.28,2h0a1.12,1.12,0,0,0,1.2-.19l1.1-1s3.77,2.15,5.55,1.56Z"/>
      <path id="Path_114" data-name="Path 114" class="cls-10" d="M350,129.11l-.9,16.83-13.69,3.55.57,5.13,16.73-1.75a4.56,4.56,0,0,0,3.09-1.51,3.23,3.23,0,0,0,.74-1.76l2.07-17.46Z"/>
      <path id="Path_115" data-name="Path 115" class="cls-13" d="M327,158.65l19.42-3.4a1.1,1.1,0,0,0,.89-1.27h0a1.09,1.09,0,0,0-1.26-.89l-19.43,3.4a1.1,1.1,0,0,0-.89,1.27h0a1.11,1.11,0,0,0,1.27.89Z"/>
      <path id="Path_116" data-name="Path 116" class="cls-13" d="M327.14,157.6a.41.41,0,0,1-.3-.14l-11.69-13.25a.41.41,0,1,1,.61-.54l11.69,13.25a.41.41,0,0,1,0,.58A.42.42,0,0,1,327.14,157.6Z"/>
      <path id="Path_117" data-name="Path 117" class="cls-13" d="M349.86,123.75s5.54,13.32,13.12,6.68S354.72,120,354.72,120Z"/>
      <path id="Path_118" data-name="Path 118" class="cls-2" d="M500.77,311.9l9.89-25.54a1.42,1.42,0,0,1,2.66,0l9.88,25.54Z"/>
      <g id="Group_5" data-name="Group 5" class="cls-21">
        <rect id="Rectangle_7" data-name="Rectangle 7" class="cls-22" width="17.55" height="4.91" transform="translate(503.06 291.85)"/>
        <rect id="Rectangle_8" data-name="Rectangle 8" class="cls-22" width="19.84" height="4.91" transform="translate(502.1 301.14)"/>
      </g>
      <rect id="Rectangle_9" data-name="Rectangle 9" class="cls-23" width="7.73" height="21.84" transform="translate(306.4 282.47)"/>
      <rect id="Rectangle_10" data-name="Rectangle 10" class="cls-23" width="7.73" height="21.84" transform="translate(347.13 282.47)"/>
      <rect id="Rectangle_11" data-name="Rectangle 11" class="cls-24" width="64.18" height="11.02" rx="3.37" transform="translate(298.31 303.09)"/>
      <rect id="Rectangle_12" data-name="Rectangle 12" class="cls-2" width="64.89" height="19.7" rx="5.14" transform="translate(298.31 264.55)"/>
      <g id="Group_6" data-name="Group 6" class="cls-25">
        <path id="Path_121" data-name="Path 121" class="cls-6" d="M297.5,291.15H285.81l27.25-30.23h11.69Z"/>
        <path id="Path_122" data-name="Path 122" class="cls-6" d="M345,291.15H333.31l27.25-30.23h11.69Z"/>
        <path id="Path_123" data-name="Path 123" class="cls-6" d="M320.77,291.15h-11.7l27.25-30.23h11.7Z"/>
      </g>
    </g>
    <g id="Group_9" data-name="Group 9" transform="translate(29 228)">
      <path id="Path_120" data-name="Path 120" class="cls-26" d="M524.75,314.05H499.34a1.77,1.77,0,0,1-1.77-1.77h0a1.77,1.77,0,0,1,1.77-1.78h25.41a1.77,1.77,0,0,1,1.77,1.78h0A1.77,1.77,0,0,1,524.75,314.05Z"/>
      <line id="Line_8" data-name="Line 8" class="cls-27" x2="360.24" transform="translate(254.49 314.27)"/>
    </g>
  </g>
</svg>
